<?xml version="1.0" encoding="utf-8"?>
<!-- Generator: Adobe Illustrator 23.0.6, SVG Export Plug-In . SVG Version: 6.00 Build 0)  -->
<svg version="1.1" id="Layer_1" xmlns="http://www.w3.org/2000/svg" xmlns:xlink="http://www.w3.org/1999/xlink" x="0px" y="0px"
	 viewBox="0 0 620.62 576" style="enable-background:new 0 0 620.62 576;" xml:space="preserve">
<style type="text/css">
	.st0{fill:#FFFFFF;}
	.st1{opacity:0.8;fill:#FFFFFF;}
	.st2{opacity:0.7;fill:#FFFFFF;}
	.st3{opacity:0.6;fill:#FFFFFF;}
	.st4{opacity:0.9;fill:#FFFFFF;}
	.st5{opacity:0.5;fill:#FFFFFF;}
	.st6{opacity:0.6;}
	.st7{fill:#231F20;}
	.st8{opacity:0.8;fill:#231F20;}
	.st9{opacity:0.7;fill:#231F20;}
	.st10{opacity:0.6;fill:#231F20;}
	.st11{opacity:0.9;fill:#231F20;}
	.st12{opacity:0.5;fill:#231F20;}
	.st13{fill:#F7951D;}
	.st14{fill:#FAAB18;}
	.st15{fill:#F6BC56;}
	.st16{fill:#CCCCCC;}
	.st17{clip-path:url(#SVGID_2_);}
</style>
<g>
	<g>
		<path class="st13" d="M329.39,122.31V1.77l291.35,105.12v120.93L329.39,122.31z"/>
	</g>
	<g>
		<path class="st14" d="M329.39,213.71l291.35-106.83v122.26L329.39,342.19V213.71z"/>
	</g>
	<g>
		<path class="st14" d="M0.12,463.2V340.95L291.46,227.9v128.47L0.12,463.2"/>
	</g>
	<g>
		<path class="st15" d="M291.46,447.77v120.55L0.12,463.2V342.27L291.46,447.77z"/>
	</g>
	<path class="st13" d="M173.9,48.27l29.59-11.63l-0.02,121l-29.57,11.62V48.27z"/>
	<path class="st13" d="M110.27,73.27l19.29-7.58v120.99l-19.29,7.58V73.27z"/>
	<path class="st13" d="M57.31,94.09l9.95-3.91l-0.11,121.04l-9.94,3.91L57.31,94.09z"/>
	<path class="st13" d="M251.4,17.81l40.06-15.74v120.99l-39.93,15.69L251.4,17.81z"/>
	<path class="st13" d="M6.85,234.91l-5.45,2.14V116.04l5.45-2.16V234.91z"/>
	<path class="st15" d="M445.29,523.76l-29.59,11.63l0.02-121l29.57-11.62V523.76z"/>
	<path class="st15" d="M512.36,496.69l-19.29,7.58V383.28l19.29-7.58V496.69z"/>
	<path class="st15" d="M566.88,474.94l-9.95,3.91l0.11-121.04l9.94-3.91L566.88,474.94z"/>
	<path class="st15" d="M369.79,553.22l-40.06,15.74V447.97l39.93-15.69L369.79,553.22z"/>
	<path class="st15" d="M614.34,336.12l5.45-2.14v121.02l-5.45,2.16V336.12z"/>
</g>
</svg>
